<svg width="1440" height="2515" viewBox="0 0 1440 2515" fill="none" xmlns="http://www.w3.org/2000/svg">
<path d="M903.513 -403C596.49 -403 442.979 -403 385.196 -303.25C327.413 -203.501 403.784 -70.3346 556.526 195.998L792.561 607.567C837.62 686.135 860.15 725.419 895.84 750.833C931.531 776.246 976.024 784.685 1065.01 801.563L1142.46 816.253C1362.24 857.939 1472.13 878.781 1544.57 818.794C1617 758.807 1617 646.958 1617 423.259V-2.99985C1617 -191.562 1617 -285.843 1558.42 -344.421C1499.84 -403 1405.56 -403 1217 -403H903.513Z" fill="#8C9FE1" fill-opacity="0.3"/>
<path d="M531.182 1859.91C738.463 1928.21 842.104 1962.36 845.559 2030.84C849.014 2099.32 749.338 2143.73 549.985 2232.55L237.317 2371.86C208.258 2384.81 193.728 2391.28 178.175 2392.98C162.623 2394.68 147.038 2391.49 115.87 2385.12L-381.052 2283.55C-473.423 2264.67 -519.608 2255.23 -542.438 2220.66C-565.269 2186.1 -555.828 2139.92 -536.947 2047.55L-478.633 1762.26C-457.634 1659.52 -447.135 1608.16 -408.307 1585.64C-369.48 1563.13 -319.684 1579.54 -220.093 1612.36L531.182 1859.91Z" fill="#8C9FE1" fill-opacity="0.3"/>
</svg>
